<svg width="172" height="177" viewBox="0 0 172 177" fill="none" xmlns="http://www.w3.org/2000/svg">
<path d="M144.98 140.268H38.1098C30.7319 140.268 24.751 134.287 24.751 126.909V33.3971C24.751 26.0192 30.7319 20.0382 38.1098 20.0382H78.1863C79.9576 20.0382 81.6563 20.7426 82.9086 21.9953L94.3104 33.3971H144.98C152.358 33.3971 158.339 39.378 158.339 46.7559V126.909C158.339 134.287 152.358 140.268 144.98 140.268ZM38.1098 46.7559V126.909H144.98V46.7559H38.1098Z" fill="#4B2E83"/>
<rect x="36.6177" y="43.9417" width="110.668" height="85.4423" fill="#4B2E83"/>
<path d="M138.471 151.66H31.6C24.2222 151.66 18.2412 145.679 18.2412 138.301V44.7894C18.2412 37.4115 24.2222 31.4305 31.6 31.4305H71.6765C73.4479 31.4305 75.1465 32.1349 76.3989 33.3876L87.8006 44.7894H138.471C145.849 44.7894 151.829 50.7703 151.829 58.1482V138.301C151.829 145.679 145.849 151.66 138.471 151.66ZM31.6 58.1482V138.301H138.471V58.1482H31.6Z" fill="white"/>
<rect x="28.4805" y="57.7752" width="110.668" height="85.4423" fill="white"/>
<path d="M133.588 156.542H26.7177C19.3398 156.542 13.3589 150.561 13.3589 143.184V49.6718C13.3589 42.2939 19.3398 36.313 26.7177 36.313H66.7942C68.5655 36.313 70.2642 37.0173 71.5165 38.27L82.9183 49.6718H133.588C140.966 49.6718 146.947 55.6527 146.947 63.0306V143.184C146.947 150.561 140.966 156.542 133.588 156.542ZM26.7177 63.0306V143.184H133.588V63.0306H26.7177Z" fill="#8A6BC5"/>
<rect x="23.5981" y="62.6577" width="110.668" height="85.4423" fill="#8A6BC5"/>
</svg>
